ffmpeg version 4.2.7-0ubuntu0.1 Copyright (c) 2000-2022 the FFmpeg developers
  built with gcc 9 (Ubuntu 9.4.0-1ubuntu1~20.04.1)
  configuration: --prefix=/usr --extra-version=0ubuntu0.1 --toolchain=hardened --libdir=/usr/lib/x86_64-linux-gnu --incdir=/usr/include/x86_64-linux-gnu --arch=amd64 --enable-gpl --disable-stripping --enable-avresample --disable-filter=resample --enable-avisynth --enable-gnutls --enable-ladspa --enable-libaom --enable-libass --enable-libbluray --enable-libbs2b --enable-libcaca --enable-libcdio --enable-libcodec2 --enable-libflite --enable-libfontconfig --enable-libfreetype --enable-libfribidi --enable-libgme --enable-libgsm --enable-libjack --enable-libmp3lame --enable-libmysofa --enable-libopenjpeg --enable-libopenmpt --enable-libopus --enable-libpulse --enable-librsvg --enable-librubberband --enable-libshine --enable-libsnappy --enable-libsoxr --enable-libspeex --enable-libssh --enable-libtheora --enable-libtwolame --enable-libvidstab --enable-libvorbis --enable-libvpx --enable-libwavpack --enable-libwebp --enable-libx265 --enable-libxml2 --enable-libxvid --enable-libzmq --enable-libzvbi --enable-lv2 --enable-omx --enable-openal --enable-opencl --enable-opengl --enable-sdl2 --enable-libdc1394 --enable-libdrm --enable-libiec61883 --enable-nvenc --enable-chromaprint --enable-frei0r --enable-libx264 --enable-shared
  libavutil      56. 31.100 / 56. 31.100
  libavcodec     58. 54.100 / 58. 54.100
  libavformat    58. 29.100 / 58. 29.100
  libavdevice    58.  8.100 / 58.  8.100
  libavfilter     7. 57.100 /  7. 57.100
  libavresample   4.  0.  0 /  4.  0.  0
  libswscale      5.  5.100 /  5.  5.100
  libswresample   3.  5.100 /  3.  5.100
  libpostproc    55.  5.100 / 55.  5.100
Routing option strict to both codec and muxer layer
[h264 @ 0x55e43826ee00] Reinit context to 848x464, pix_fmt: yuv420p
Input #0, mov,mp4,m4a,3gp,3g2,mj2, from '/var/www/html/project/media/video/original/VID-20230930-WA0004.mp4':
  Metadata:
    major_brand     : mp42
    minor_version   : 0
    compatible_brands: mp42isom
  Duration: 00:01:09.17, start: 0.000000, bitrate: 1893 kb/s
    Stream #0:0(und): Video: h264 (Baseline), 1 reference frame (avc1 / 0x31637661), yuv420p(tv, smpte170m/bt470bg/smpte170m, left), 848x464, 1825 kb/s, SAR 1:1 DAR 53:29, 29.99 fps, 30 tbr, 90k tbn, 180k tbc (default)
    Stream #0:1(und): Audio: aac (LC) (mp4a / 0x6134706D), 44100 Hz, stereo, fltp, 64 kb/s (default)
Input #1, png_pipe, from '/var/www/html/project/static/images/templates/logo.png':
  Duration: N/A, bitrate: N/A
    Stream #1:0: Video: png, 1 reference frame, rgba(pc), 1920x1080 [SAR 2835:2835 DAR 16:9], 25 tbr, 25 tbn, 25 tbc
[Parsed_scale_0 @ 0x55e4382c2900] w:1280 h:720 flags:'bilinear' interl:0
[Parsed_scale_2 @ 0x55e438271380] w:1280 h:720 flags:'bilinear' interl:0
Stream mapping:
  Stream #0:0 (h264) -> scale (graph 0)
  Stream #1:0 (png) -> scale (graph 0)
  overlay (graph 0) -> Stream #0:0 (libx264)
  Stream #0:1 -> #0:1 (aac (native) -> aac (native))
Press [q] to stop, [?] for help
[h264 @ 0x55e4384006c0] Reinit context to 848x464, pix_fmt: yuv420p
[graph_1_in_0_1 @ 0x55e4387d3340] tb:1/44100 samplefmt:fltp samplerate:44100 chlayout:0x3
[Parsed_scale_0 @ 0x55e43896a400] w:1280 h:720 flags:'bilinear' interl:0
[Parsed_scale_2 @ 0x55e43896dc40] w:1280 h:720 flags:'bilinear' interl:0
[graph 0 input from stream 0:0 @ 0x55e4389700c0] w:848 h:464 pixfmt:yuv420p tb:1/90000 fr:30/1 sar:1/1 sws_param:flags=2
[graph 0 input from stream 1:0 @ 0x55e438971140] w:1920 h:1080 pixfmt:rgba tb:1/25 fr:25/1 sar:2835/2835 sws_param:flags=2
[Parsed_scale_0 @ 0x55e43896a400] w:848 h:464 fmt:yuv420p sar:1/1 -> w:1280 h:720 fmt:yuv420p sar:477/464 flags:0x2
[Parsed_setsar_1 @ 0x55e43896d440] w:1280 h:720 sar:477/464 dar:53/29 -> sar:1/1 dar:16/9
[Parsed_scale_2 @ 0x55e43896dc40] w:1920 h:1080 fmt:rgba sar:2835/2835 -> w:1280 h:720 fmt:yuva420p sar:1/1 flags:0x2
[Parsed_setsar_3 @ 0x55e43896e680] w:1280 h:720 sar:1/1 dar:16/9 -> sar:1/1 dar:16/9
[Parsed_overlay_4 @ 0x55e43896f300] main w:1280 h:720 fmt:yuv420p overlay w:1280 h:720 fmt:yuva420p
[Parsed_overlay_4 @ 0x55e43896f300] [framesync @ 0x55e43896f428] Selected 1/90000 time base
[Parsed_overlay_4 @ 0x55e43896f300] [framesync @ 0x55e43896f428] Sync level 2
[libx264 @ 0x55e4382d9840] using SAR=1/1
[libx264 @ 0x55e4382d9840] using cpu capabilities: MMX2 SSE2Fast SSSE3 SSE4.2 AVX FMA3 BMI2 AVX2
[libx264 @ 0x55e4382d9840] profile High, level 3.1
[libx264 @ 0x55e4382d9840] 264 - core 155 r2917 0a84d98 - H.264/MPEG-4 AVC codec - Copyleft 2003-2018 - http://www.videolan.org/x264.html - options: cabac=1 ref=1 deblock=1:0:0 analyse=0x3:0x113 me=hex subme=2 psy=1 psy_rd=1.00:0.00 mixed_ref=0 me_range=16 chroma_me=1 trellis=0 8x8dct=1 cqm=0 deadzone=21,11 fast_pskip=1 chroma_qp_offset=0 threads=22 lookahead_threads=5 sliced_threads=0 nr=0 decimate=1 interlaced=0 bluray_compat=0 constrained_intra=0 bframes=3 b_pyramid=2 b_adapt=1 b_bias=0 direct=1 weightb=1 open_gop=0 weightp=1 keyint=250 keyint_min=25 scenecut=40 intra_refresh=0 rc_lookahead=10 rc=crf mbtree=1 crf=18.0 qcomp=0.60 qpmin=0 qpmax=69 qpstep=4 ip_ratio=1.40 aq=1:1.00
Output #0, mp4, to '/var/www/html/project/media/video/watermarks/VID-20230930-WA0004.mp4':
  Metadata:
    major_brand     : mp42
    minor_version   : 0
    compatible_brands: mp42isom
    encoder         : Lavf58.29.100
    Stream #0:0: Video: h264 (libx264), 1 reference frame (avc1 / 0x31637661), yuv420p, 1280x720 [SAR 1:1 DAR 16:9], q=-1--1, 30 fps, 15360 tbn, 30 tbc (default)
    Metadata:
      encoder         : Lavc58.54.100 libx264
    Side data:
      cpb: bitrate max/min/avg: 0/0/0 buffer size: 0 vbv_delay: -1
    Stream #0:1(und): Audio: aac (LC) (mp4a / 0x6134706D), 44100 Hz, stereo, fltp, delay 1024, 128 kb/s (default)
    Metadata:
      encoder         : Lavc58.54.100 aac
[Parsed_overlay_4 @ 0x55e43896f300] [framesync @ 0x55e43896f428] Sync level 0
No more output streams to write to, finishing.
frame= 2074 fps= 95 q=-1.0 Lsize=   36712kB time=00:01:09.12 bitrate=4350.6kbits/s speed=3.16x    
[AVIOContext @ 0x55e43826d0c0] Statistics: 0 seeks, 43 writeouts
video:35551kB audio:1087kB subtitle:0kB other streams:0kB global headers:0kB muxing overhead: 0.202877%
Input file #0 (/var/www/html/project/media/video/original/VID-20230930-WA0004.mp4):
  Input stream #0:0 (video): 2074 packets read (15779728 bytes); 2074 frames decoded; 
  Input stream #0:1 (audio): 2978 packets read (561280 bytes); 2978 frames decoded (3049472 samples); 
  Total: 5052 packets (16341008 bytes) demuxed
Input file #1 (/var/www/html/project/static/images/templates/logo.png):
  Input stream #1:0 (video): 1 packets read (111578 bytes); 1 frames decoded; 
  Total: 1 packets (111578 bytes) demuxed
Output file #0 (/var/www/html/project/media/video/watermarks/VID-20230930-WA0004.mp4):
  Output stream #0:0 (video): 2074 frames encoded; 2074 packets muxed (36403874 bytes); 
  Output stream #0:1 (audio): 2978 frames encoded (3049472 samples); 2979 packets muxed (1113019 bytes); 
  Total: 5053 packets (37516893 bytes) muxed
[AVIOContext @ 0x55e438271480] Statistics: 2 seeks, 147 writeouts
[libx264 @ 0x55e4382d9840] frame I:9     Avg QP:16.27  size:147692
[libx264 @ 0x55e4382d9840] frame P:549   Avg QP:19.27  size: 43284
[libx264 @ 0x55e4382d9840] frame B:1516  Avg QP:22.21  size:  7461
[libx264 @ 0x55e4382d9840] consecutive B-frames:  1.2%  2.2%  5.8% 90.8%
[libx264 @ 0x55e4382d9840] mb I  I16..4:  4.7% 15.0% 80.3%
[libx264 @ 0x55e4382d9840] mb P  I16..4:  3.9% 13.2%  4.0%  P16..4: 36.8% 21.3% 17.6%  0.0%  0.0%    skip: 3.2%
[libx264 @ 0x55e4382d9840] mb B  I16..4:  0.6%  0.5%  0.1%  B16..8: 25.0% 10.0%  1.2%  direct:16.6%  skip:46.2%  L0:30.4% L1:44.6% BI:24.9%
[libx264 @ 0x55e4382d9840] 8x8 transform intra:57.3% inter:39.2%
[libx264 @ 0x55e4382d9840] coded y,uvDC,uvAC intra: 64.8% 78.6% 33.3% inter: 23.1% 20.5% 0.5%
[libx264 @ 0x55e4382d9840] i16 v,h,dc,p: 22% 56% 12% 10%
[libx264 @ 0x55e4382d9840] i8 v,h,dc,ddl,ddr,vr,hd,vl,hu: 17% 32% 14%  4%  6%  6%  7%  6%  7%
[libx264 @ 0x55e4382d9840] i4 v,h,dc,ddl,ddr,vr,hd,vl,hu: 18% 23% 10%  6% 10%  8% 10%  6%  7%
[libx264 @ 0x55e4382d9840] i8c dc,h,v,p: 41% 30% 15% 14%
[libx264 @ 0x55e4382d9840] Weighted P-Frames: Y:5.5% UV:1.1%
[libx264 @ 0x55e4382d9840] kb/s:4210.49
[aac @ 0x55e438400240] Qavg: 176.506
[AVIOContext @ 0x55e438276040] Statistics: 82447005 bytes read, 2291 seeks
[AVIOContext @ 0x55e438406700] Statistics: 111578 bytes read, 0 seeks
